ffmpeg started on 2016-11-27 at 20:37:11
Report written to "Output/NVENCh264/results/ffmpeg/crowd_run_2160p50llhp2500k.log"
Command line:
Tools/ffmpeg/ffmpeg -benchmark -y -i Input/y4m/crowd_run_2160p50.y4m -c:v h264_nvenc -preset llhp -b:v 2500k -an Output/NVENCh264/encoded/crowd_run_2160p50llhp2500k.mkv
ffmpeg version N-82227-gdb23fde Copyright (c) 2000-2016 the FFmpeg developers
  built with gcc 5.4.0 (Ubuntu 5.4.0-6ubuntu1~16.04.2) 20160609
  configuration: --prefix=/home/jaroslav/ffmpeg_build --pkg-config-flags=--static --extra-cflags=-I/home/jaroslav/ffmpeg_build/include --extra-ldflags=-L/home/jaroslav/ffmpeg_build/lib --bindir=/home/jaroslav/bin --enable-gpl --enable-libass --enable-libfdk-aac --enable-libfreetype --enable-libmp3lame --enable-libopus --enable-libtheora --enable-libvorbis --enable-libvpx --enable-libx264 --enable-libx265 --enable-nvenc --enable-libmfx --enable-libxvid --enable-libgsm --enable-libopencore-amrnb --enable-version3 --enable-nonfree
  libavutil      55. 35.100 / 55. 35.100
  libavcodec     57. 66.101 / 57. 66.101
  libavformat    57. 57.100 / 57. 57.100
  libavdevice    57.  2.100 / 57.  2.100
  libavfilter     6. 66.100 /  6. 66.100
  libswscale      4.  3.100 /  4.  3.100
  libswresample   2.  4.100 /  2.  4.100
  libpostproc    54.  2.100 / 54.  2.100
Input #0, yuv4mpegpipe, from 'Input/y4m/crowd_run_2160p50.y4m':
  Duration: 00:00:10.00, start: 0.000000, bitrate: 4976642 kb/s
    Stream #0:0: Video: rawvideo (I420 / 0x30323449), yuv420p(progressive), 3840x2160, SAR 1:1 DAR 16:9, 50 fps, 50 tbr, 50 tbn, 50 tbc
[h264_nvenc @ 0x32171c0] The variable bitrate rate-control requires the 'qmin' and/or 'qmax' option set.
Output #0, matroska, to 'Output/NVENCh264/encoded/crowd_run_2160p50llhp2500k.mkv':
  Metadata:
    encoder         : Lavf57.57.100
    Stream #0:0: Video: h264 (h264_nvenc) (Main) (H264 / 0x34363248), yuv420p, 3840x2160 [SAR 1:1 DAR 16:9], q=-1--1, 2500 kb/s, 50 fps, 1k tbn, 50 tbc
    Metadata:
      encoder         : Lavc57.66.101 h264_nvenc
    Side data:
      cpb: bitrate max/min/avg: 0/0/2500000 buffer size: 5000000 vbv_delay: -1
Stream mapping:
  Stream #0:0 -> #0:0 (rawvideo (native) -> h264 (h264_nvenc))
Press [q] to stop, [?] for help
frame=   12 fps=0.0 q=0.0 size=       0kB time=00:00:00.00 bitrate=N/A speed=   0x    frame=   27 fps= 26 q=0.0 size=       0kB time=00:00:00.00 bitrate=N/A speed=   0x    frame=   44 fps= 28 q=49.0 size=       1kB time=00:00:00.26 bitrate=  22.9kbits/s speed=0.167x    frame=   62 fps= 30 q=49.0 size=       1kB time=00:00:00.62 bitrate=   9.6kbits/s speed=0.299x    frame=   80 fps= 31 q=49.0 size=       1kB time=00:00:00.98 bitrate=   6.1kbits/s speed=0.378x    frame=   98 fps= 31 q=49.0 size=       1kB time=00:00:01.34 bitrate=   4.5kbits/s speed=0.431x    frame=  116 fps= 32 q=49.0 size=       1kB time=00:00:01.70 bitrate=   3.5kbits/s speed=0.467x    frame=  129 fps= 24 q=49.0 size=       1kB time=00:00:01.96 bitrate=   3.0kbits/s speed=0.37x    frame=  130 fps= 14 q=49.0 size=       1kB time=00:00:01.98 bitrate=   3.0kbits/s speed=0.213x    frame=  131 fps= 12 q=49.0 size=       1kB time=00:00:02.00 bitrate=   3.0kbits/s speed=0.183x    frame=  148 fps= 13 q=49.0 size=       1kB time=00:00:02.34 bitrate=   2.6kbits/s speed=0.205x    frame=  165 fps= 14 q=49.0 size=       1kB time=00:00:02.68 bitrate=   2.2kbits/s speed=0.224x    frame=  174 fps= 14 q=49.0 size=       1kB time=00:00:02.86 bitrate=   2.1kbits/s speed=0.23x    frame=  191 fps= 15 q=49.0 size=       1kB time=00:00:03.20 bitrate=   1.9kbits/s speed=0.247x    frame=  208 fps= 15 q=49.0 size=       1kB time=00:00:03.54 bitrate=   1.7kbits/s speed=0.263x    frame=  225 fps= 16 q=49.0 size=       1kB time=00:00:03.88 bitrate=   1.5kbits/s speed=0.277x    frame=  243 fps= 17 q=49.0 size=       1kB time=00:00:04.24 bitrate=   1.4kbits/s speed=0.292x    frame=  260 fps= 17 q=49.0 size=       1kB time=00:00:04.58 bitrate=   1.3kbits/s speed=0.305x    frame=  278 fps= 18 q=49.0 size=       1kB time=00:00:04.94 bitrate=   1.2kbits/s speed=0.318x    frame=  295 fps= 18 q=49.0 size=    3066kB time=00:00:05.28 bitrate=4755.4kbits/s speed=0.329x    frame=  313 fps= 19 q=49.0 size=    3066kB time=00:00:05.64 bitrate=4451.9kbits/s speed=0.34x    frame=  331 fps= 19 q=49.0 size=    3066kB time=00:00:06.00 bitrate=4184.9kbits/s speed=0.351x    frame=  349 fps= 20 q=49.0 size=    3066kB time=00:00:06.36 bitrate=3948.0kbits/s speed=0.361x    frame=  367 fps= 20 q=49.0 size=    3066kB time=00:00:06.72 bitrate=3736.5kbits/s speed=0.37x    frame=  385 fps= 21 q=49.0 size=    3066kB time=00:00:07.08 bitrate=3546.6kbits/s speed=0.379x    frame=  398 fps= 21 q=49.0 size=    3066kB time=00:00:07.34 bitrate=3421.0kbits/s speed=0.381x    frame=  416 fps= 21 q=49.0 size=    3066kB time=00:00:07.70 bitrate=3261.0kbits/s speed=0.389x    frame=  434 fps= 21 q=49.0 size=    3066kB time=00:00:08.06 bitrate=3115.4kbits/s speed=0.397x    frame=  451 fps= 21 q=49.0 size=    3066kB time=00:00:08.40 bitrate=2989.3kbits/s speed=0.397x    frame=  469 fps= 22 q=49.0 size=    3066kB time=00:00:08.76 bitrate=2866.5kbits/s speed=0.404x    frame=  487 fps= 22 q=49.0 size=    3066kB time=00:00:09.12 bitrate=2753.3kbits/s speed=0.411x    frame=  500 fps= 22 q=49.0 Lsize=    6311kB time=00:00:09.98 bitrate=5179.9kbits/s speed=0.442x    
video:6307kB audio:0kB subtitle:0kB other streams:0kB global headers:0kB muxing overhead: 0.067357%
bench: utime=1.156s
bench: maxrss=1398484kB
